<svg width="32" height="32" viewBox="0 0 32 32" fill="none" xmlns="http://www.w3.org/2000/svg" class="get-started_icon__dWZHw" style="width: 1em; height: 1em; font-size: 1.6rem;"><path d="M13 15.3333C11.4837 15.3333 10.0014 14.8837 8.74063 14.0413C7.47985 13.1988 6.4972 12.0015 5.91692 10.6006C5.33665 9.19967 5.18483 7.65816 5.48065 6.17098C5.77647 4.68379 6.50664 3.31772 7.57885 2.24552C8.65105 1.17332 10.0171 0.443136 11.5043 0.147316C12.9915 -0.148504 14.533 0.00332189 15.9339 0.583594C17.3348 1.16387 18.5322 2.14652 19.3746 3.4073C20.217 4.66807 20.6667 6.15035 20.6667 7.66667C20.6631 9.69891 19.8543 11.6469 18.4173 13.0839C16.9802 14.5209 15.0322 15.3298 13 15.3333ZM13 2C11.8792 2 10.7836 2.33235 9.85177 2.95501C8.91989 3.57767 8.19358 4.46268 7.76468 5.49813C7.33579 6.53358 7.22357 7.67296 7.44222 8.77218C7.66087 9.87141 8.20056 10.8811 8.99306 11.6736C9.78556 12.4661 10.7953 13.0058 11.8945 13.2245C12.9937 13.4431 14.1331 13.3309 15.1685 12.902C16.204 12.4731 17.089 11.7468 17.7117 10.8149C18.3343 9.88302 18.6667 8.78743 18.6667 7.66667C18.6631 6.16486 18.065 4.72556 17.003 3.66362C15.9411 2.60168 14.5018 2.00352 13 2Z" fill="url(#paint0_linear_790_12450)"/><path d="M25 26C24.7359 25.9965 24.4835 25.8901 24.2967 25.7033C24.1099 25.5165 24.0035 25.2641 24 25C23.9965 22.4373 22.9769 19.9806 21.1648 18.1685C19.3527 16.3564 16.896 15.3369 14.3333 15.3333H11.6667C9.10399 15.3369 6.64728 16.3564 4.8352 18.1685C3.02311 19.9806 2.00353 22.4373 2 25C2 25.2652 1.89464 25.5196 1.70711 25.7071C1.51957 25.8946 1.26522 26 1 26C0.734783 26 0.480429 25.8946 0.292893 25.7071C0.105357 25.5196 0 25.2652 0 25C0.00352894 21.9069 1.23382 18.9415 3.42098 16.7543C5.60814 14.5672 8.57356 13.3369 11.6667 13.3333H14.3333C17.4264 13.3369 20.3919 14.5672 22.579 16.7543C24.7662 18.9415 25.9965 21.9069 26 25C25.9965 25.2641 25.8901 25.5165 25.7033 25.7033C25.5165 25.8901 25.2641 25.9965 25 26Z" fill="url(#paint1_linear_790_12450)"/><defs><linearGradient id="paint0_linear_790_12450" x1="26.3881" y1="23.8333" x2="-7.92794" y2="-7.44885" gradientUnits="userSpaceOnUse"><stop stop-color="#C01B4C"/><stop offset="1" stop-color="#DC4B2B"/></linearGradient><linearGradient id="paint1_linear_790_12450" x1="26.3881" y1="23.8333" x2="-7.92794" y2="-7.44885" gradientUnits="userSpaceOnUse"><stop stop-color="#C01B4C"/><stop offset="1" stop-color="#DC4B2B"/></linearGradient></defs></svg>