<svg width="32" height="32" viewBox="0 0 32 32" fill="none" xmlns="http://www.w3.org/2000/svg" class="get-started_icon__dWZHw" style="width: 1em; height: 1em; font-size: 1.6rem;"><path d="M11.4471 18.3222C10.2286 18.3222 9.03737 17.9609 8.02418 17.2839C7.01099 16.6069 6.2213 15.6447 5.75498 14.5189C5.28866 13.3931 5.16665 12.1543 5.40438 10.9591C5.64211 9.76401 6.2289 8.6662 7.09055 7.80455C7.95219 6.9429 9.05 6.35612 10.2451 6.11839C11.4403 5.88066 12.6791 6.00267 13.8049 6.46899C14.9307 6.93531 15.8929 7.725 16.5699 8.73819C17.2469 9.75138 17.6082 10.9426 17.6082 12.1611C17.6054 13.7943 16.9554 15.3597 15.8006 16.5146C14.6457 17.6694 13.0803 18.3194 11.4471 18.3222ZM11.4471 7.60725C10.5464 7.60725 9.666 7.87433 8.91712 8.37472C8.16824 8.8751 7.58456 9.58632 7.23989 10.4184C6.89522 11.2505 6.80503 12.1662 6.98075 13.0495C7.15646 13.9329 7.59017 14.7443 8.22704 15.3812C8.86391 16.0181 9.67533 16.4518 10.5587 16.6275C11.4421 16.8032 12.3577 16.713 13.1898 16.3684C14.0219 16.0237 14.7331 15.44 15.2335 14.6911C15.7339 13.9422 16.001 13.0618 16.001 12.1611C15.9982 10.9542 15.5175 9.79758 14.6641 8.94418C13.8107 8.09077 12.654 7.61008 11.4471 7.60725Z" fill="url(#paint0_linear_790_12467)"/><path d="M21.0906 26.8942C20.8783 26.8915 20.6755 26.8059 20.5254 26.6558C20.3753 26.5057 20.2898 26.3029 20.287 26.0906C20.2841 24.0312 19.4648 22.0569 18.0085 20.6007C16.5523 19.1444 14.578 18.3251 12.5186 18.3222H10.3756C8.31619 18.3251 6.34192 19.1444 4.88568 20.6007C3.42944 22.0569 2.61008 24.0312 2.60725 26.0906C2.60725 26.3037 2.52258 26.5082 2.37187 26.6589C2.22116 26.8096 2.01676 26.8942 1.80362 26.8942C1.59049 26.8942 1.38608 26.8096 1.23538 26.6589C1.08467 26.5082 1 26.3037 1 26.0906C1.00284 23.6049 1.99153 21.2218 3.74919 19.4642C5.50684 17.7065 7.88992 16.7178 10.3756 16.715H12.5186C15.0043 16.7178 17.3874 17.7065 19.145 19.4642C20.9027 21.2218 21.8914 23.6049 21.8942 26.0906C21.8915 26.3029 21.8059 26.5057 21.6558 26.6558C21.5057 26.8059 21.3029 26.8915 21.0906 26.8942Z" fill="url(#paint1_linear_790_12467)"/><path fill-rule="evenodd" clip-rule="evenodd" d="M23.4995 19.1326L22.7303 19.1326C21.7537 19.134 20.8037 19.3911 19.97 19.8667C19.746 19.5432 19.4834 19.2484 19.1889 18.9889C19.7062 18.6685 20.2643 18.4198 20.8474 18.2493C20.2133 17.7743 19.7172 17.1367 19.4129 16.402C19.0781 15.5937 18.9905 14.7044 19.1612 13.8463C19.3318 12.9883 19.7531 12.2001 20.3717 11.5815C20.9904 10.9628 21.7785 10.5416 22.6366 10.3709C23.4946 10.2002 24.384 10.2878 25.1923 10.6226C26.0006 10.9574 26.6914 11.5243 27.1774 12.2518C27.6635 12.9792 27.9229 13.8344 27.9229 14.7093C27.9209 15.8818 27.4542 17.0057 26.6251 17.8348C26.4752 17.9847 26.3157 18.1227 26.1481 18.2483C27.2259 18.5627 28.2181 19.1444 29.0263 19.9525C30.2882 21.2144 30.998 22.9253 31 24.7099C30.998 24.8623 30.9366 25.0079 30.8288 25.1157C30.7211 25.2235 30.5755 25.2849 30.4231 25.2869C30.2707 25.2849 30.1251 25.2235 30.0173 25.1157C29.9095 25.0079 29.8481 24.8623 29.8461 24.7099C29.8441 23.2314 29.2558 21.8139 28.2103 20.7684C27.1648 19.7229 25.7474 19.1347 24.2688 19.1326L23.4995 19.1326ZM23.5029 17.9787C23.9291 17.9783 24.3532 17.8945 24.7507 17.7298C25.3481 17.4824 25.8587 17.0633 26.218 16.5257C26.5772 15.988 26.769 15.3559 26.769 14.7093C26.767 13.8428 26.4218 13.0124 25.8091 12.3997C25.1964 11.787 24.366 11.4418 23.4995 11.4398C22.8529 11.4398 22.2208 11.6316 21.6831 11.9908C21.1455 12.3501 20.7264 12.8607 20.479 13.4581C20.2315 14.0555 20.1668 14.7129 20.2929 15.3471C20.4191 15.9813 20.7305 16.5639 21.1877 17.0211C21.6449 17.4783 22.2275 17.7897 22.8617 17.9159C23.0716 17.9576 23.2841 17.9785 23.4961 17.9787H23.5029Z" fill="url(#paint2_linear_790_12467)"/><defs><linearGradient id="paint0_linear_790_12467" x1="22.2061" y1="25.1531" x2="-5.37109" y2="0.0139228" gradientUnits="userSpaceOnUse"><stop stop-color="#C01B4C"/><stop offset="1" stop-color="#DC4B2B"/></linearGradient><linearGradient id="paint1_linear_790_12467" x1="22.2061" y1="25.1531" x2="-5.37109" y2="0.0139228" gradientUnits="userSpaceOnUse"><stop stop-color="#C01B4C"/><stop offset="1" stop-color="#DC4B2B"/></linearGradient><linearGradient id="paint2_linear_790_12467" x1="31.178" y1="24.0368" x2="12.283" y2="10.3455" gradientUnits="userSpaceOnUse"><stop stop-color="#C01B4C"/><stop offset="1" stop-color="#DC4B2B"/></linearGradient></defs></svg>