<svg width="32" height="32" viewBox="0 0 32 32" fill="none" xmlns="http://www.w3.org/2000/svg" class="get-started_icon__dWZHw" style="width: 1em; height: 1em; font-size: 3.2rem;"><path fill-rule="evenodd" clip-rule="evenodd" d="M11.48 4.31999L13.2667 6.10669H9.00002C8.33827 6.10841 7.68341 6.24113 7.07321 6.49719C6.46301 6.75325 5.90953 7.12758 5.44471 7.5986C4.97989 8.06962 4.61292 8.628 4.36497 9.24154C4.11701 9.85508 3.99298 10.5116 4.00002 11.1734V13.24H2.5332C2.26799 13.24 2.01363 13.3453 1.8261 13.5329C1.63856 13.7204 1.5332 13.9748 1.5332 14.24C1.5332 14.5052 1.63856 14.7596 1.8261 14.9471C2.01363 15.1346 2.26799 15.24 2.5332 15.24H4.00002V24.5067C4.00176 25.1673 4.13404 25.8211 4.38927 26.4304C4.6445 27.0397 5.01763 27.5926 5.48723 28.0572C5.95683 28.5219 6.51364 28.8891 7.12563 29.1379C7.73763 29.3866 8.39276 29.512 9.05336 29.5067H22.3867C23.714 29.4891 24.9802 28.9458 25.9075 27.996C26.8348 27.0462 27.3476 25.7674 27.3334 24.44V15.24H28.8665C29.1318 15.24 29.3861 15.1346 29.5736 14.9471C29.7612 14.7596 29.8665 14.5052 29.8665 14.24C29.8665 13.9748 29.7612 13.7204 29.5736 13.5329C29.3861 13.3453 29.1318 13.24 28.8665 13.24H27.3334V11.1067C27.3298 9.78169 26.8019 8.51196 25.865 7.57504C24.9281 6.63812 23.6584 6.11021 22.3334 6.10669H18.1199L19.9866 4.23999C20.1739 4.05249 20.2791 3.79833 20.2791 3.53332C20.2791 3.26832 20.1739 3.01416 19.9866 2.82666C19.8947 2.73231 19.7848 2.65733 19.6634 2.60614C19.5421 2.55494 19.4117 2.52856 19.28 2.52856C19.1482 2.52856 19.0178 2.55494 18.8965 2.60614C18.7751 2.65733 18.6652 2.73231 18.5733 2.82666L15.6933 5.69332L12.8933 2.90666C12.8014 2.81231 12.6915 2.73733 12.5701 2.68614C12.4487 2.63494 12.3183 2.60856 12.1866 2.60856C12.0549 2.60856 11.9245 2.63494 11.8031 2.68614C11.6818 2.73733 11.5719 2.81231 11.48 2.90666C11.2927 3.09416 11.1875 3.34832 11.1875 3.61332C11.1875 3.87833 11.2927 4.13249 11.48 4.31999ZM6.00002 15.24V24.44C6.00002 25.2357 6.31609 25.9987 6.8787 26.5613C7.44131 27.124 8.20437 27.44 9.00002 27.44H14.6934V15.24H6.00002ZM16.6934 15.24V27.44H22.3334C23.1176 27.4402 23.8707 27.1333 24.4315 26.585C24.9922 26.0368 25.3159 25.2907 25.3334 24.5067V15.24H16.6934ZM15.6934 13.24H25.3334V11.1734C25.3334 10.7794 25.2558 10.3893 25.105 10.0253C24.9542 9.66133 24.7333 9.33061 24.4547 9.05204C24.1761 8.77346 23.8454 8.55248 23.4814 8.40172C23.1174 8.25095 22.7273 8.17336 22.3334 8.17336H9.05336C8.25994 8.15906 7.49317 8.4597 6.92091 9.00946C6.34866 9.55923 6.01753 10.3133 6.00002 11.1067V13.24H15.6934Z" fill="url(#paint0_linear_790_12460)"/><defs><linearGradient id="paint0_linear_790_12460" x1="-0.686946" y1="2.52856" x2="29.1093" y2="7.04847" gradientUnits="userSpaceOnUse"><stop stop-color="#E33342"/><stop offset="1" stop-color="#B61267"/></linearGradient></defs></svg>