<svg width="32" height="32" viewBox="0 0 32 32" fill="none" xmlns="http://www.w3.org/2000/svg" class="get-started_icon__dWZHw" style="width: 1em; height: 1em; font-size: 3.2rem;"><path d="M16.0003 21.4534C13.9634 21.4534 12.01 20.6442 10.5697 19.2039C9.12943 17.7637 8.32029 15.8102 8.32029 13.7734V4.86668C8.29998 4.57815 8.29998 4.28855 8.32029 4.00002C8.33692 3.86957 8.37909 3.74368 8.44437 3.62953C8.50966 3.51538 8.59679 3.4152 8.70079 3.33472C8.8048 3.25425 8.92363 3.19504 9.05051 3.16049C9.17739 3.12594 9.30984 3.11672 9.44029 3.13335C9.57073 3.14998 9.69663 3.19215 9.81078 3.25744C9.92493 3.32272 10.0251 3.40986 10.1056 3.51386C10.1861 3.61786 10.2453 3.73669 10.2798 3.86358C10.3144 3.99046 10.3236 4.1229 10.307 4.25335C10.2928 4.45755 10.2928 4.66248 10.307 4.86668V13.7734C10.307 15.2798 10.9054 16.7245 11.9706 17.7897C13.0358 18.8549 14.4805 19.4534 15.987 19.4534C17.4934 19.4534 18.9381 18.8549 20.0033 17.7897C21.0685 16.7245 21.667 15.2798 21.667 13.7734V4.86668C21.6811 4.66248 21.6811 4.45755 21.667 4.25335C21.673 4.01481 21.7642 3.78631 21.9241 3.60912C22.0839 3.43193 22.3018 3.31773 22.5384 3.28715C22.7751 3.25656 23.0149 3.3116 23.2145 3.44233C23.4141 3.57306 23.5604 3.77087 23.627 4.00002C23.6473 4.28855 23.6473 4.57815 23.627 4.86668V13.7734C23.627 15.801 22.8252 17.7464 21.3964 19.1852C19.9677 20.6239 18.0279 21.4393 16.0003 21.4534Z" fill="url(#paint0_linear_790_12451)"/><path d="M23.4003 13.3334C23.217 13.3318 23.0374 13.2811 22.8803 13.1867L22.1603 12.76C21.9449 12.6225 21.7903 12.4077 21.7283 12.1597C21.6663 11.9117 21.7016 11.6494 21.827 11.4267C21.9601 11.2064 22.174 11.0469 22.4231 10.9821C22.6722 10.9174 22.9367 10.9525 23.1603 11.08L23.627 11.36C27.187 11.0934 28.0003 7.04002 28.267 5.12002H3.73362C3.92029 7.05335 4.77362 11.0934 8.33362 11.28L8.80029 11C9.02384 10.8725 9.28838 10.8374 9.53747 10.9021C9.78657 10.9669 10.0005 11.1264 10.1336 11.3467C10.259 11.5694 10.2943 11.8317 10.2323 12.0797C10.1703 12.3277 10.0157 12.5425 9.80029 12.68L9.08029 13.1067C8.92316 13.2011 8.74361 13.2518 8.56029 13.2534C3.08029 13.2534 1.62695 7.25335 1.62695 4.08002C1.64077 3.81594 1.75727 3.56773 1.95158 3.38836C2.14589 3.209 2.40262 3.1127 2.66695 3.12002H29.3336C29.5978 3.12347 29.8501 3.22994 30.0369 3.41673C30.2237 3.60352 30.3302 3.85588 30.3336 4.12002C30.3336 7.29335 28.8803 13.3334 23.4003 13.3334Z" fill="url(#paint1_linear_790_12451)"/><path d="M16.0003 28.88C15.7361 28.8766 15.4838 28.7701 15.297 28.5833C15.1102 28.3965 15.0037 28.1442 15.0003 27.88V20.4534C15.0003 20.1881 15.1056 19.9338 15.2932 19.7462C15.4807 19.5587 15.7351 19.4534 16.0003 19.4534C16.2655 19.4534 16.5199 19.5587 16.7074 19.7462C16.8949 19.9338 17.0003 20.1881 17.0003 20.4534V27.88C16.9968 28.1442 16.8904 28.3965 16.7036 28.5833C16.5168 28.7701 16.2644 28.8766 16.0003 28.88Z" fill="url(#paint2_linear_790_12451)"/><path d="M23.427 28.88H10.0936C9.8284 28.88 9.57405 28.7747 9.38651 28.5871C9.19898 28.3996 9.09362 28.1452 9.09362 27.88C9.09362 27.6148 9.19898 27.3604 9.38651 27.1729C9.57405 26.9854 9.8284 26.88 10.0936 26.88H23.427C23.6922 26.88 23.9465 26.9854 24.1341 27.1729C24.3216 27.3604 24.427 27.6148 24.427 27.88C24.427 28.1452 24.3216 28.3996 24.1341 28.5871C23.9465 28.7747 23.6922 28.88 23.427 28.88Z" fill="url(#paint3_linear_790_12451)"/><defs><linearGradient id="paint0_linear_790_12451" x1="-0.622449" y1="3.11963" x2="29.4811" y2="7.96507" gradientUnits="userSpaceOnUse"><stop stop-color="#E33342"/><stop offset="1" stop-color="#B61267"/></linearGradient><linearGradient id="paint1_linear_790_12451" x1="-0.622449" y1="3.11963" x2="29.4811" y2="7.96507" gradientUnits="userSpaceOnUse"><stop stop-color="#E33342"/><stop offset="1" stop-color="#B61267"/></linearGradient><linearGradient id="paint2_linear_790_12451" x1="-0.622449" y1="3.11963" x2="29.4811" y2="7.96507" gradientUnits="userSpaceOnUse"><stop stop-color="#E33342"/><stop offset="1" stop-color="#B61267"/></linearGradient><linearGradient id="paint3_linear_790_12451" x1="-0.622449" y1="3.11963" x2="29.4811" y2="7.96507" gradientUnits="userSpaceOnUse"><stop stop-color="#E33342"/><stop offset="1" stop-color="#B61267"/></linearGradient></defs></svg>